<?xml version="1.0" encoding="UTF-8"?>
<svg xmlns="http://www.w3.org/2000/svg" role="img" viewBox="0 0 24 24" fill="#ffffff">
  <title>PostgreSQL</title>
  <path d="M21.954 10.897c-.134-1.09-.489-2.027-1.07-2.8.142-1.23-.048-2.246-.578-3.03-1.118-1.62-3.497-1.81-5.842-.626a9.36 9.36 0 0 0-1.33.83 8.79 8.79 0 0 0-1.27-.79C8.5 3.31 6.12 3.51 5 5.13c-.53.784-.72 1.8-.578 3.03-.58.773-.935 1.71-1.07 2.8-.186 1.518.09 2.88.82 3.93.652.93 1.6 1.57 2.76 1.85.52.125 1.06.18 1.6.17.86 1.38 2.15 2.47 3.47 2.47 1.31 0 2.6-1.09 3.46-2.47.54.01 1.08-.045 1.6-.17 1.16-.28 2.11-.92 2.76-1.85.73-1.05 1.01-2.412.83-3.93zM9.84 7.42c.6-.36 1.31-.6 2.16-.7.85.1 1.56.34 2.16.7.89.53 1.42 1.37 1.42 2.39 0 .49-.14 1.02-.42 1.55-.27.5-.65.98-1.1 1.36l-.03.03c-.16.14-.33.27-.51.39-.07.05-.14.09-.21.13-.45.26-.93.41-1.35.41-.43 0-.9-.15-1.36-.41a4.1 4.1 0 0 1-.73-.52 4.9 4.9 0 0 1-1.35-1.39c-.28-.53-.42-1.06-.42-1.55 0-1.02.53-1.86 1.42-2.39zM7.6 16.07c-1.86-.45-2.9-2.15-2.62-4.33.09-.71.32-1.37.68-1.94.24 1.62 1.28 3.13 2.77 4.23.3.22.62.41.95.58-.52.62-1.16 1.1-1.78 1.46zm4.4 3.01c-.77 0-1.77-.9-2.37-2.05.67-.06 1.34-.23 1.96-.51.14.02.28.03.41.03.14 0 .27-.01.41-.03.62.28 1.29.45 1.96.51-.6 1.15-1.6 2.05-2.37 2.05zm4.4-3.01c-.62-.36-1.26-.84-1.78-1.46.33-.17.65-.36.95-.58 1.49-1.1 2.53-2.61 2.77-4.23.36.57.59 1.23.68 1.94.28 2.18-.76 3.88-2.62 4.33zM9.75 11.16c.4 0 .72-.5.72-1.12 0-.62-.32-1.12-.72-1.12-.4 0-.72.5-.72 1.12 0 .62.32 1.12.72 1.12zm4.5 0c.4 0 .72-.5.72-1.12 0-.62-.32-1.12-.72-1.12-.4 0-.72.5-.72 1.12 0 .62.32 1.12.72 1.12z"/>
</svg>
